<svg width="408" height="275" viewBox="0 0 408 275" fill="none" xmlns="http://www.w3.org/2000/svg">
<g clip-path="url(#clip0_236_3)">
<rect width="408" height="275" fill="white"/>
<path d="M104.284 232V162.182H121.159V190.205H148.67V162.182H165.511V232H148.67V203.943H121.159V232H104.284ZM218.335 162.182H235.176V207.216C235.176 212.42 233.938 216.955 231.46 220.818C228.983 224.659 225.528 227.636 221.097 229.75C216.665 231.841 211.517 232.886 205.653 232.886C199.722 232.886 194.54 231.841 190.108 229.75C185.676 227.636 182.233 224.659 179.778 220.818C177.324 216.955 176.097 212.42 176.097 207.216V162.182H192.972V205.75C192.972 208.159 193.494 210.307 194.54 212.193C195.608 214.08 197.097 215.557 199.006 216.625C200.915 217.693 203.131 218.227 205.653 218.227C208.176 218.227 210.381 217.693 212.267 216.625C214.176 215.557 215.665 214.08 216.733 212.193C217.801 210.307 218.335 208.159 218.335 205.75V162.182ZM245.753 232V162.182H274.866C280.094 162.182 284.469 162.92 287.991 164.398C291.537 165.875 294.196 167.943 295.969 170.602C297.764 173.261 298.662 176.341 298.662 179.841C298.662 182.5 298.105 184.875 296.991 186.966C295.878 189.034 294.344 190.75 292.389 192.114C290.435 193.477 288.173 194.432 285.605 194.977V195.659C288.423 195.795 291.026 196.557 293.412 197.943C295.821 199.33 297.753 201.261 299.207 203.739C300.662 206.193 301.389 209.102 301.389 212.466C301.389 216.216 300.435 219.568 298.526 222.523C296.616 225.455 293.855 227.773 290.241 229.477C286.628 231.159 282.241 232 277.082 232H245.753ZM262.628 218.398H273.06C276.719 218.398 279.412 217.705 281.139 216.318C282.889 214.932 283.764 213 283.764 210.523C283.764 208.727 283.344 207.182 282.503 205.886C281.662 204.568 280.469 203.557 278.923 202.852C277.378 202.125 275.526 201.761 273.366 201.761H262.628V218.398ZM262.628 190.886H271.969C273.81 190.886 275.446 190.58 276.878 189.966C278.31 189.352 279.423 188.466 280.219 187.307C281.037 186.148 281.446 184.75 281.446 183.114C281.446 180.773 280.616 178.932 278.957 177.591C277.298 176.25 275.06 175.58 272.241 175.58H262.628V190.886Z" fill="#382E37"/>
<path d="M64.4312 104.627C62.342 103.235 60.1944 102.803 57.9883 103.331C55.7788 103.827 53.6401 105.358 51.5722 107.924C50.2032 109.623 49.2835 111.217 48.8132 112.706C48.3429 114.195 48.2688 115.537 48.5911 116.73C48.8957 117.91 49.5363 118.908 50.5131 119.724C51.2985 120.415 52.1436 120.834 53.0482 120.979C53.967 121.107 54.9434 121.018 55.9774 120.713C57.0079 120.376 58.0995 119.854 59.252 119.148C60.4046 118.443 61.6127 117.577 62.8764 116.553L67.7031 112.736C70.4548 110.517 73.1444 108.774 75.7719 107.505C78.4138 106.219 80.9705 105.419 83.442 105.105C85.9278 104.773 88.339 104.95 90.6756 105.637C93.0122 106.323 95.2759 107.534 97.4668 109.271C100.886 112.055 103.133 115.297 104.21 118.995C105.286 122.694 105.181 126.682 103.895 130.958C102.623 135.216 100.162 139.61 96.5113 144.14C92.8462 148.688 88.9705 152.103 84.884 154.385C80.7975 156.667 76.6093 157.626 72.3194 157.263C68.0294 156.9 63.7395 155.033 59.4497 151.664L69.5893 139.082C71.4268 140.387 73.2646 141.095 75.1028 141.205C76.9411 141.314 78.7457 140.886 80.5168 139.92C82.3021 138.936 83.972 137.479 85.5265 135.55C86.9526 133.781 87.9259 132.084 88.4464 130.46C88.9811 128.819 89.0947 127.32 88.7872 125.963C88.4798 124.606 87.7846 123.476 86.7017 122.574C85.661 121.765 84.5284 121.377 83.3037 121.412C82.0613 121.433 80.6542 121.875 79.0822 122.739C77.5069 123.571 75.6905 124.792 73.6332 126.404L67.7281 131.014C62.8552 134.852 58.1245 137.154 53.5359 137.922C48.9296 138.676 44.5719 137.382 40.463 134.042C37.0865 131.35 34.8674 128.073 33.8058 124.211C32.7442 120.349 32.8033 116.237 33.9831 111.876C35.1629 107.514 37.4143 103.272 40.7371 99.1485C44.1312 94.9369 47.7928 91.8602 51.7219 89.9185C55.6476 87.9449 59.585 87.1338 63.5343 87.4851C67.4835 87.8365 71.1624 89.3564 74.5708 92.0449L64.4312 104.627ZM93.5996 67.8739L87.7249 55.4924L141.04 30.1964L146.914 42.5779L127.787 51.6529L151.841 102.35L136.811 109.481L112.757 58.7843L93.5996 67.8739ZM177.439 22.5405L196.279 23.2166L209.984 52.9431L210.597 52.9651L226.396 24.2973L245.237 24.9734L218.051 70.5278L217.215 93.831L200.453 93.2295L201.289 69.9263L177.439 22.5405ZM248.474 97.2188L280.639 35.2515L295.617 43.026L269.765 92.8298L295.544 106.211L289.231 118.375L248.474 97.2188ZM295.37 123.874L349.075 79.2602L380.183 116.707L369.641 125.464L349.317 100.998L338.303 110.147L357.037 132.699L346.469 141.478L327.735 118.926L316.695 128.097L337.019 152.563L326.478 161.32L295.37 123.874Z" fill="#382E37"/>
</g>
<defs>
<clipPath id="clip0_236_3">
<rect width="408" height="275" fill="white"/>
</clipPath>
</defs>
</svg>
